<svg xmlns="http://www.w3.org/2000/svg" xmlns:xlink="http://www.w3.org/1999/xlink" width="1200" zoomAndPan="magnify" viewBox="0 0 900 472.499986" height="630" preserveAspectRatio="xMidYMid meet" version="1.0"><defs><g/></defs><g fill="#302d2d" fill-opacity="1"><g transform="translate(90.411345, 269.339965)"><g><path d="M 52.140625 -44.859375 L 53.84375 -35.59375 L 72.90625 -38.5625 C 76.4375 -39.101562 79.757812 -39.820312 82.875 -40.71875 L 86.03125 -23.015625 C 85.363281 -23.015625 84.789062 -23 84.3125 -22.96875 C 83.832031 -22.9375 83.023438 -22.84375 81.890625 -22.6875 C 80.753906 -22.539062 78.894531 -22.289062 76.3125 -21.9375 L 56.984375 -18.96875 L 59.5 -5.578125 C 59.988281 -3.054688 60.335938 -1.222656 60.546875 -0.078125 C 60.753906 1.054688 60.945312 1.9375 61.125 2.5625 C 61.300781 3.1875 61.570312 4.007812 61.9375 5.03125 L 41.890625 8.265625 C 41.890625 6.765625 41.796875 5.25 41.609375 3.71875 C 41.429688 2.195312 41.101562 0.175781 40.625 -2.34375 L 38.203125 -16.09375 L 18.78125 -13.125 C 17.101562 -12.882812 15.53125 -12.597656 14.0625 -12.265625 C 12.59375 -11.941406 10.84375 -11.507812 8.8125 -10.96875 L 6.015625 -28.765625 C 7.703125 -28.828125 9.320312 -28.929688 10.875 -29.078125 C 12.4375 -29.222656 14.328125 -29.476562 16.546875 -29.84375 L 35.140625 -32.71875 L 33.53125 -41.984375 L 19.421875 -39.828125 C 16.421875 -39.285156 14.242188 -38.894531 12.890625 -38.65625 C 11.546875 -38.414062 10.601562 -38.234375 10.0625 -38.109375 C 9.53125 -37.992188 8.90625 -37.847656 8.1875 -37.671875 L 5.390625 -55.640625 C 7.304688 -55.703125 9.132812 -55.820312 10.875 -56 C 12.613281 -56.175781 14.410156 -56.382812 16.265625 -56.625 L 30.46875 -58.875 L 29.75 -62.921875 C 29.445312 -64.722656 29.175781 -66.144531 28.9375 -67.1875 C 28.695312 -68.238281 28.472656 -69.164062 28.265625 -69.96875 C 28.054688 -70.78125 27.773438 -71.726562 27.421875 -72.8125 L 46.921875 -75.78125 C 47.046875 -74.34375 47.195312 -72.8125 47.375 -71.1875 C 47.550781 -69.570312 47.820312 -67.894531 48.1875 -66.15625 L 48.984375 -61.75 L 63.828125 -64 L 65.078125 -64.265625 C 64.660156 -65.828125 64.210938 -67.222656 63.734375 -68.453125 C 63.253906 -69.679688 62.59375 -71.101562 61.75 -72.71875 L 71.828125 -75.328125 C 73.023438 -73.109375 73.96875 -71.113281 74.65625 -69.34375 C 75.34375 -67.582031 76.046875 -65.410156 76.765625 -62.828125 L 73.703125 -61.9375 L 75.953125 -48.1875 C 74.816406 -48.125 73.425781 -48 71.78125 -47.8125 C 70.132812 -47.632812 68.53125 -47.425781 66.96875 -47.1875 Z M 73.890625 -75.875 L 83.515625 -78.390625 C 84.710938 -76.523438 85.671875 -74.753906 86.390625 -73.078125 C 87.109375 -71.398438 87.851562 -69.179688 88.625 -66.421875 L 78.75 -63.375 C 78.207031 -65.53125 77.5625 -67.566406 76.8125 -69.484375 C 76.0625 -71.398438 75.085938 -73.53125 73.890625 -75.875 Z M 73.890625 -75.875 "/></g></g></g><g fill="#302d2d" fill-opacity="1"><g transform="translate(180.304506, 269.339965)"><g><path d="M 4.140625 -24.09375 L 4.140625 -44.3125 C 5.628906 -44.132812 6.972656 -43.984375 8.171875 -43.859375 C 9.378906 -43.742188 10.671875 -43.671875 12.046875 -43.640625 C 13.421875 -43.609375 15.125 -43.578125 17.15625 -43.546875 C 19.195312 -43.515625 21.804688 -43.5 24.984375 -43.5 L 64.90625 -43.5 C 68.082031 -43.5 70.6875 -43.515625 72.71875 -43.546875 C 74.757812 -43.578125 76.46875 -43.609375 77.84375 -43.640625 C 79.21875 -43.671875 80.503906 -43.742188 81.703125 -43.859375 C 82.910156 -43.984375 84.257812 -44.132812 85.75 -44.3125 L 85.75 -24.09375 C 84.4375 -24.207031 83.269531 -24.3125 82.25 -24.40625 C 81.226562 -24.5 80.070312 -24.554688 78.78125 -24.578125 C 77.5 -24.609375 75.78125 -24.625 73.625 -24.625 C 71.46875 -24.625 68.53125 -24.625 64.8125 -24.625 L 25.078125 -24.625 C 21.359375 -24.625 18.40625 -24.625 16.21875 -24.625 C 14.03125 -24.625 12.289062 -24.609375 11 -24.578125 C 9.71875 -24.554688 8.582031 -24.5 7.59375 -24.40625 C 6.601562 -24.3125 5.453125 -24.207031 4.140625 -24.09375 Z M 4.140625 -24.09375 "/></g></g></g><g fill="#302d2d" fill-opacity="1"><g transform="translate(270.197667, 269.339965)"><g><path d="M 30.65625 -77.390625 L 50.703125 -73.890625 C 50.578125 -73.648438 50.347656 -73.1875 50.015625 -72.5 C 49.691406 -71.8125 49.289062 -70.894531 48.8125 -69.75 C 48.632812 -69.332031 48.453125 -68.882812 48.265625 -68.40625 C 48.085938 -67.925781 47.878906 -67.445312 47.640625 -66.96875 C 47.460938 -66.425781 47.34375 -66.078125 47.28125 -65.921875 C 47.21875 -65.773438 47.097656 -65.523438 46.921875 -65.171875 L 70.65625 -65.4375 C 71.613281 -65.4375 72.390625 -65.523438 72.984375 -65.703125 C 73.585938 -65.890625 74.3125 -66.222656 75.15625 -66.703125 L 83.953125 -58.0625 C 83.597656 -57.53125 83.285156 -57.023438 83.015625 -56.546875 C 82.742188 -56.066406 82.472656 -55.4375 82.203125 -54.65625 C 81.929688 -53.875 81.554688 -52.703125 81.078125 -51.140625 C 78.742188 -43.597656 76.03125 -36.875 72.9375 -30.96875 C 69.851562 -25.0625 66.273438 -19.742188 62.203125 -15.015625 C 58.128906 -10.335938 53.425781 -6.125 48.09375 -2.375 C 42.757812 1.363281 36.285156 5.003906 28.671875 8.546875 C 27.359375 6.140625 26.160156 4.128906 25.078125 2.515625 C 24.003906 0.898438 22.757812 -0.695312 21.34375 -2.28125 C 19.9375 -3.875 18.097656 -5.75 15.828125 -7.90625 C 22.054688 -10.0625 27.519531 -12.519531 32.21875 -15.28125 C 36.925781 -18.039062 41.195312 -21.25 45.03125 -24.90625 C 47.425781 -27.238281 49.523438 -29.554688 51.328125 -31.859375 C 53.128906 -34.171875 54.75 -36.71875 56.1875 -39.5 C 57.625 -42.289062 59 -45.484375 60.3125 -49.078125 L 38.5625 -48.90625 C 37.300781 -46.863281 35.96875 -44.925781 34.5625 -43.09375 C 33.15625 -41.269531 31.28125 -39.007812 28.9375 -36.3125 C 27.257812 -34.394531 25.65625 -32.734375 24.125 -31.328125 C 22.601562 -29.921875 20.675781 -28.257812 18.34375 -26.34375 C 16.78125 -28.019531 15.425781 -29.425781 14.28125 -30.5625 C 13.144531 -31.695312 12.050781 -32.695312 11 -33.5625 C 9.957031 -34.4375 8.820312 -35.289062 7.59375 -36.125 C 6.363281 -36.96875 4.851562 -37.929688 3.0625 -39.015625 C 8.75 -43.148438 13.523438 -47.476562 17.390625 -52 C 21.253906 -56.519531 24.566406 -61.660156 27.328125 -67.421875 C 28.347656 -69.578125 29.113281 -71.40625 29.625 -72.90625 C 30.132812 -74.40625 30.476562 -75.898438 30.65625 -77.390625 Z M 30.65625 -77.390625 "/></g></g></g><g fill="#302d2d" fill-opacity="1"><g transform="translate(360.09084, 269.339965)"><g><path d="M 10.96875 -73.890625 L 30.65625 -72.359375 C 30.050781 -70.378906 29.421875 -67.9375 28.765625 -65.03125 C 28.109375 -62.125 27.476562 -59.035156 26.875 -55.765625 C 26.28125 -52.503906 25.769531 -49.226562 25.34375 -45.9375 C 24.925781 -42.519531 24.566406 -39.175781 24.265625 -35.90625 C 23.972656 -32.644531 23.828125 -30.113281 23.828125 -28.3125 L 31.375 -25.796875 C 30.53125 -23.222656 29.789062 -20.390625 29.15625 -17.296875 C 28.53125 -14.210938 28.050781 -11.113281 27.71875 -8 C 27.394531 -4.882812 27.234375 -1.945312 27.234375 0.8125 C 27.234375 1.40625 27.25 1.972656 27.28125 2.515625 C 27.3125 3.054688 27.359375 3.742188 27.421875 4.578125 L 9.171875 5.390625 C 9.109375 4.367188 9.0625 3.554688 9.03125 2.953125 C 9 2.359375 8.894531 1.4375 8.71875 0.1875 C 7.875 -6.050781 7.269531 -11.445312 6.90625 -16 C 6.550781 -20.550781 6.375 -24.925781 6.375 -29.125 C 6.375 -31.9375 6.445312 -34.691406 6.59375 -37.390625 C 6.75 -40.085938 6.976562 -42.929688 7.28125 -45.921875 C 7.582031 -48.921875 7.988281 -52.296875 8.5 -56.046875 C 9.007812 -59.796875 9.648438 -64.097656 10.421875 -68.953125 C 10.546875 -69.785156 10.648438 -70.5625 10.734375 -71.28125 C 10.828125 -72 10.90625 -72.867188 10.96875 -73.890625 Z M 36.140625 -48.453125 L 36.3125 -66.421875 C 40.507812 -65.460938 46.535156 -64.984375 54.390625 -64.984375 C 59.722656 -64.984375 64.679688 -65.175781 69.265625 -65.5625 C 73.847656 -65.957031 77.488281 -66.484375 80.1875 -67.140625 L 80.984375 -49.078125 C 79.609375 -49.078125 77.332031 -48.898438 74.15625 -48.546875 C 71.21875 -48.242188 68.070312 -48 64.71875 -47.8125 C 61.363281 -47.632812 58.1875 -47.546875 55.1875 -47.546875 C 52.789062 -47.546875 50.210938 -47.601562 47.453125 -47.71875 C 44.703125 -47.84375 42.21875 -48 40 -48.1875 C 38.976562 -48.300781 38.269531 -48.375 37.875 -48.40625 C 37.488281 -48.4375 36.910156 -48.453125 36.140625 -48.453125 Z M 41.53125 -38.203125 L 56.1875 -32.265625 C 54.269531 -29.566406 52.875 -27.289062 52 -25.4375 C 51.132812 -23.582031 50.703125 -21.875 50.703125 -20.3125 C 50.703125 -18.519531 51.507812 -17.140625 53.125 -16.171875 C 54.738281 -15.210938 57.046875 -14.734375 60.046875 -14.734375 C 63.941406 -14.734375 67.835938 -15.046875 71.734375 -15.671875 C 75.628906 -16.304688 79.40625 -17.253906 83.0625 -18.515625 L 83.953125 0.1875 C 83.179688 0.238281 82.539062 0.296875 82.03125 0.359375 C 81.519531 0.421875 80.664062 0.570312 79.46875 0.8125 C 75.625 1.40625 72.21875 1.820312 69.25 2.0625 C 66.289062 2.300781 63.222656 2.421875 60.046875 2.421875 C 50.460938 2.421875 43.484375 0.503906 39.109375 -3.328125 C 34.910156 -6.859375 32.8125 -11.203125 32.8125 -16.359375 C 32.8125 -19.535156 33.515625 -22.890625 34.921875 -26.421875 C 36.328125 -29.960938 38.53125 -33.890625 41.53125 -38.203125 Z M 41.53125 -38.203125 "/></g></g></g><g fill="#302d2d" fill-opacity="1"><g transform="translate(449.98399, 269.339965)"><g><path d="M 23.28125 -76.671875 L 41.984375 -75.0625 C 41.796875 -74.394531 41.628906 -73.820312 41.484375 -73.34375 C 41.335938 -72.863281 41.203125 -72.28125 41.078125 -71.59375 C 40.960938 -70.90625 40.753906 -69.90625 40.453125 -68.59375 C 40.328125 -67.8125 40.203125 -67.117188 40.078125 -66.515625 C 39.960938 -65.921875 39.785156 -65.023438 39.546875 -63.828125 C 42.722656 -64.179688 45.148438 -64.492188 46.828125 -64.765625 C 48.503906 -65.035156 49.941406 -65.347656 51.140625 -65.703125 L 51.421875 -48.546875 C 51.296875 -48.546875 51.203125 -48.546875 51.140625 -48.546875 C 51.085938 -48.546875 51.03125 -48.546875 50.96875 -48.546875 C 50.726562 -48.546875 50.441406 -48.53125 50.109375 -48.5 C 49.785156 -48.46875 49.410156 -48.421875 48.984375 -48.359375 C 48.503906 -48.296875 48.054688 -48.25 47.640625 -48.21875 C 47.222656 -48.195312 46.609375 -48.15625 45.796875 -48.09375 C 44.984375 -48.03125 43.769531 -47.921875 42.15625 -47.765625 C 40.539062 -47.617188 38.296875 -47.425781 35.421875 -47.1875 C 33.796875 -41.675781 31.769531 -35.832031 29.34375 -29.65625 C 26.914062 -23.488281 24.207031 -17.4375 21.21875 -11.5 C 20.375 -9.769531 19.753906 -8.5 19.359375 -7.6875 C 18.972656 -6.875 18.691406 -6.285156 18.515625 -5.921875 C 18.335938 -5.566406 18.128906 -5.117188 17.890625 -4.578125 L 0.8125 -13.75 C 2.90625 -16.625 4.820312 -19.601562 6.5625 -22.6875 C 8.300781 -25.78125 10.023438 -29.273438 11.734375 -33.171875 C 13.441406 -37.066406 15.222656 -41.617188 17.078125 -46.828125 C 16.722656 -46.828125 16.4375 -46.828125 16.21875 -46.828125 C 16.007812 -46.828125 15.816406 -46.828125 15.640625 -46.828125 C 15.335938 -46.828125 14.78125 -46.828125 13.96875 -46.828125 C 13.164062 -46.828125 11.476562 -46.859375 8.90625 -46.921875 C 8.300781 -46.984375 7.816406 -47.015625 7.453125 -47.015625 C 7.097656 -47.015625 6.832031 -47.015625 6.65625 -47.015625 C 6.53125 -47.015625 6.347656 -47.015625 6.109375 -47.015625 C 5.867188 -47.015625 5.597656 -46.984375 5.296875 -46.921875 L 5.296875 -63.828125 C 7.222656 -63.523438 9.265625 -63.296875 11.421875 -63.140625 C 13.578125 -62.992188 16.179688 -62.921875 19.234375 -62.921875 C 19.359375 -62.921875 19.550781 -62.921875 19.8125 -62.921875 C 20.082031 -62.921875 20.609375 -62.921875 21.390625 -62.921875 C 22.046875 -66.097656 22.507812 -68.734375 22.78125 -70.828125 C 23.050781 -72.929688 23.21875 -74.878906 23.28125 -76.671875 Z M 88.453125 -55.640625 L 80.8125 -40 C 76.4375 -42.632812 71.863281 -45.03125 67.09375 -47.1875 C 62.332031 -49.34375 57.164062 -51.320312 51.59375 -53.125 L 60.40625 -67.875 C 64.414062 -66.488281 67.976562 -65.164062 71.09375 -63.90625 C 74.21875 -62.65625 77.171875 -61.367188 79.953125 -60.046875 C 82.742188 -58.722656 85.578125 -57.253906 88.453125 -55.640625 Z M 87.28125 -14.015625 L 79.640625 2.609375 C 77.847656 0.628906 76.242188 -0.972656 74.828125 -2.203125 C 73.421875 -3.429688 71.582031 -4.796875 69.3125 -6.296875 C 69.070312 -4.140625 68.601562 -2.398438 67.90625 -1.078125 C 67.21875 0.242188 66.15625 1.503906 64.71875 2.703125 C 62.863281 4.253906 60.40625 5.476562 57.34375 6.375 C 54.289062 7.28125 51 7.734375 47.46875 7.734375 C 43.570312 7.734375 40.035156 7.160156 36.859375 6.015625 C 33.679688 4.878906 31.132812 3.265625 29.21875 1.171875 C 26.21875 -2.179688 24.71875 -6.078125 24.71875 -10.515625 C 24.71875 -14.234375 25.707031 -17.632812 27.6875 -20.71875 C 29.664062 -23.800781 32.363281 -26.09375 35.78125 -27.59375 C 39.007812 -28.96875 42.785156 -29.65625 47.109375 -29.65625 C 48.179688 -29.65625 49.828125 -29.566406 52.046875 -29.390625 C 51.867188 -30.953125 51.75 -32.238281 51.6875 -33.25 C 51.625 -34.269531 51.59375 -35.410156 51.59375 -36.671875 C 51.59375 -37.992188 51.632812 -39.3125 51.71875 -40.625 C 51.8125 -41.945312 51.890625 -43.085938 51.953125 -44.046875 C 52.078125 -44.585938 52.140625 -44.945312 52.140625 -45.125 C 52.140625 -45.300781 52.164062 -45.601562 52.21875 -46.03125 L 69.671875 -45.484375 C 69.003906 -42.609375 68.671875 -39.015625 68.671875 -34.703125 C 68.671875 -33.203125 68.71875 -31.773438 68.8125 -30.421875 C 68.90625 -29.078125 69.070312 -27.359375 69.3125 -25.265625 C 74.644531 -22.984375 79.019531 -20.582031 82.4375 -18.0625 C 82.613281 -17.945312 83.117188 -17.546875 83.953125 -16.859375 C 84.796875 -16.171875 85.90625 -15.222656 87.28125 -14.015625 Z M 52.21875 -13.484375 C 51.257812 -13.835938 50.4375 -14.070312 49.75 -14.1875 C 49.0625 -14.3125 48.300781 -14.375 47.46875 -14.375 C 45.84375 -14.375 44.550781 -14.0625 43.59375 -13.4375 C 42.632812 -12.8125 42.15625 -11.988281 42.15625 -10.96875 C 42.15625 -10.007812 42.585938 -9.210938 43.453125 -8.578125 C 44.328125 -7.953125 45.484375 -7.640625 46.921875 -7.640625 C 48.660156 -7.640625 50.007812 -8.03125 50.96875 -8.8125 C 51.925781 -9.59375 52.40625 -10.671875 52.40625 -12.046875 C 52.40625 -12.347656 52.390625 -12.660156 52.359375 -12.984375 C 52.328125 -13.316406 52.28125 -13.484375 52.21875 -13.484375 Z M 52.21875 -13.484375 "/></g></g></g><g fill="#302d2d" fill-opacity="1"><g transform="translate(539.877139, 269.339965)"><g><path d="M 14.828125 -75.6875 L 33.4375 -75.0625 C 33.132812 -74.039062 32.773438 -72.597656 32.359375 -70.734375 C 31.941406 -68.878906 31.535156 -66.914062 31.140625 -64.84375 C 30.753906 -62.78125 30.441406 -60.910156 30.203125 -59.234375 C 32.835938 -63.253906 36.015625 -66.34375 39.734375 -68.5 C 43.453125 -70.65625 47.40625 -71.734375 51.59375 -71.734375 C 58.789062 -71.734375 64.695312 -68.976562 69.3125 -63.46875 C 72.125 -60.101562 74.171875 -56.25 75.453125 -51.90625 C 76.742188 -47.5625 77.390625 -42.332031 77.390625 -36.21875 C 77.390625 -26.507812 75.097656 -18.300781 70.515625 -11.59375 C 65.929688 -4.882812 59.234375 0.0546875 50.421875 3.234375 C 47.847656 4.191406 44.773438 5.070312 41.203125 5.875 C 37.640625 6.6875 33.914062 7.363281 30.03125 7.90625 C 29.300781 5.445312 28.578125 3.300781 27.859375 1.46875 C 27.140625 -0.351562 26.316406 -2.175781 25.390625 -4 C 24.460938 -5.820312 23.25 -7.960938 21.75 -10.421875 C 30.5625 -10.722656 37.675781 -11.847656 43.09375 -13.796875 C 48.519531 -15.742188 52.488281 -18.691406 55 -22.640625 C 57.519531 -26.597656 58.78125 -31.695312 58.78125 -37.9375 C 58.78125 -43.03125 58.015625 -46.925781 56.484375 -49.625 C 54.960938 -52.320312 52.796875 -53.671875 49.984375 -53.671875 C 47.160156 -53.671875 44.28125 -52.226562 41.34375 -49.34375 C 38.644531 -46.769531 36.394531 -43.710938 34.59375 -40.171875 C 32.800781 -36.640625 31.640625 -32.988281 31.109375 -29.21875 C 31.046875 -28.550781 30.984375 -27.945312 30.921875 -27.40625 C 30.859375 -26.875 30.8125 -26.171875 30.78125 -25.296875 C 30.757812 -24.429688 30.71875 -23.191406 30.65625 -21.578125 L 12.859375 -21.390625 C 12.859375 -21.691406 12.859375 -22.003906 12.859375 -22.328125 C 12.859375 -22.660156 12.859375 -23.007812 12.859375 -23.375 C 12.859375 -24.03125 12.859375 -24.6875 12.859375 -25.34375 C 12.859375 -26.007812 12.828125 -27.269531 12.765625 -29.125 C 12.703125 -30.382812 12.671875 -31.550781 12.671875 -32.625 C 12.671875 -33.707031 12.671875 -34.9375 12.671875 -36.3125 C 12.671875 -39.664062 12.726562 -43.203125 12.84375 -46.921875 C 12.96875 -50.640625 13.148438 -54.085938 13.390625 -57.265625 C 13.453125 -58.097656 13.507812 -58.8125 13.5625 -59.40625 C 13.625 -60.007812 13.710938 -60.941406 13.828125 -62.203125 C 13.953125 -63.460938 14.132812 -65.5 14.375 -68.3125 C 14.4375 -69.269531 14.53125 -70.585938 14.65625 -72.265625 C 14.707031 -72.867188 14.75 -73.363281 14.78125 -73.75 C 14.8125 -74.144531 14.828125 -74.460938 14.828125 -74.703125 C 14.828125 -74.816406 14.828125 -74.945312 14.828125 -75.09375 C 14.828125 -75.25 14.828125 -75.445312 14.828125 -75.6875 Z M 14.828125 -75.6875 "/></g></g></g><g fill="#302d2d" fill-opacity="1"><g transform="translate(629.770289, 269.339965)"><g><path d="M 6.015625 -46.828125 L 6.296875 -64.1875 C 8.273438 -63.820312 10.398438 -63.5625 12.671875 -63.40625 C 14.953125 -63.257812 17.769531 -63.160156 21.125 -63.109375 C 21.601562 -66.046875 21.929688 -68.484375 22.109375 -70.421875 C 22.285156 -72.367188 22.375 -73.972656 22.375 -75.234375 L 22.375 -76.59375 L 42.25 -75.15625 C 42.070312 -74.488281 41.90625 -73.914062 41.75 -73.4375 C 41.601562 -72.957031 41.453125 -72.328125 41.296875 -71.546875 C 41.148438 -70.773438 40.925781 -69.488281 40.625 -67.6875 C 40.570312 -67.269531 40.515625 -66.863281 40.453125 -66.46875 C 40.390625 -66.082031 40.300781 -65.707031 40.1875 -65.34375 C 40.1875 -65.226562 40.171875 -65.109375 40.140625 -64.984375 C 40.109375 -64.867188 40.03125 -64.484375 39.90625 -63.828125 C 42.96875 -64.117188 45.617188 -64.429688 47.859375 -64.765625 C 50.109375 -65.097656 52.253906 -65.472656 54.296875 -65.890625 L 54.5625 -52.953125 C 56.539062 -53.128906 58.21875 -53.273438 59.59375 -53.390625 C 60.976562 -53.515625 62.296875 -53.617188 63.546875 -53.703125 C 64.804688 -53.796875 66.226562 -53.859375 67.8125 -53.890625 C 69.40625 -53.921875 71.367188 -53.953125 73.703125 -53.984375 C 76.046875 -54.015625 79.015625 -54.03125 82.609375 -54.03125 L 83.0625 -36.140625 C 81.5 -36.316406 80.101562 -36.429688 78.875 -36.484375 C 77.644531 -36.546875 76.34375 -36.59375 74.96875 -36.625 C 73.59375 -36.65625 71.828125 -36.671875 69.671875 -36.671875 C 65.234375 -36.671875 60.988281 -36.503906 56.9375 -36.171875 C 52.894531 -35.847656 48.804688 -35.359375 44.671875 -34.703125 L 44.5 -47.546875 C 42.875 -47.429688 41.628906 -47.34375 40.765625 -47.28125 C 39.898438 -47.21875 38.625 -47.128906 36.9375 -47.015625 C 34.300781 -33.109375 31.035156 -19.921875 27.140625 -7.453125 C 26.179688 -4.335938 25.445312 -2 24.9375 -0.4375 C 24.4375 1.113281 24.066406 2.320312 23.828125 3.1875 C 23.585938 4.0625 23.316406 5.035156 23.015625 6.109375 L 3.328125 -0.90625 C 6.140625 -6.53125 8.804688 -13.253906 11.328125 -21.078125 C 13.847656 -28.898438 16.125 -37.425781 18.15625 -46.65625 C 16.894531 -46.65625 15.90625 -46.65625 15.1875 -46.65625 C 14.46875 -46.65625 13.71875 -46.679688 12.9375 -46.734375 C 12.164062 -46.796875 11.0625 -46.859375 9.625 -46.921875 C 9.4375 -46.921875 9.238281 -46.921875 9.03125 -46.921875 C 8.820312 -46.921875 8.628906 -46.921875 8.453125 -46.921875 C 8.210938 -46.921875 7.941406 -46.921875 7.640625 -46.921875 C 7.335938 -46.921875 6.796875 -46.890625 6.015625 -46.828125 Z M 42.96875 -30.5625 L 58.34375 -25.984375 C 56.84375 -23.765625 55.75 -21.859375 55.0625 -20.265625 C 54.375 -18.679688 54.03125 -17.257812 54.03125 -16 C 54.03125 -13 57.082031 -11.5 63.1875 -11.5 C 65.582031 -11.5 68.113281 -11.648438 70.78125 -11.953125 C 73.457031 -12.253906 76.035156 -12.6875 78.515625 -13.25 C 81.003906 -13.820312 83.148438 -14.441406 84.953125 -15.109375 L 86.203125 3.59375 C 85.421875 3.59375 84.757812 3.625 84.21875 3.6875 C 83.6875 3.75 82.894531 3.835938 81.84375 3.953125 C 80.789062 4.078125 79.097656 4.285156 76.765625 4.578125 C 74.609375 4.878906 72.40625 5.101562 70.15625 5.25 C 67.90625 5.40625 65.582031 5.484375 63.1875 5.484375 C 58.570312 5.484375 54.617188 5.140625 51.328125 4.453125 C 48.035156 3.765625 45.128906 2.671875 42.609375 1.171875 C 40.390625 -0.210938 38.648438 -2.070312 37.390625 -4.40625 C 36.128906 -6.738281 35.5 -9.285156 35.5 -12.046875 C 35.5 -17.203125 37.988281 -23.375 42.96875 -30.5625 Z M 42.96875 -30.5625 "/></g></g></g><g fill="#302d2d" fill-opacity="1"><g transform="translate(719.663439, 269.339965)"><g><path d="M 5.578125 -69.671875 L 25.890625 -69.671875 C 25.523438 -67.453125 25.238281 -64.753906 25.03125 -61.578125 C 24.820312 -58.398438 24.71875 -54.894531 24.71875 -51.0625 C 24.71875 -45.125 24.957031 -39.742188 25.4375 -34.921875 C 25.914062 -30.097656 26.554688 -26.25 27.359375 -23.375 C 28.171875 -20.5 29.0625 -19.0625 30.03125 -19.0625 C 30.800781 -19.0625 31.578125 -20.109375 32.359375 -22.203125 C 33.253906 -24.660156 34.09375 -27.117188 34.875 -29.578125 C 35.65625 -32.035156 36.34375 -34.550781 36.9375 -37.125 C 38.625 -35.269531 40.109375 -33.679688 41.390625 -32.359375 C 42.679688 -31.046875 44.101562 -29.773438 45.65625 -28.546875 C 47.21875 -27.316406 49.164062 -25.832031 51.5 -24.09375 C 50.664062 -20.675781 49.664062 -17.53125 48.5 -14.65625 C 47.332031 -11.78125 46 -9.019531 44.5 -6.375 C 42.632812 -3.207031 40.382812 -0.769531 37.75 0.9375 C 35.113281 2.644531 32.296875 3.5 29.296875 3.5 C 23.722656 3.5 18.960938 0.65625 15.015625 -5.03125 C 12.617188 -8.570312 10.773438 -12.828125 9.484375 -17.796875 C 8.191406 -22.773438 7.304688 -29.035156 6.828125 -36.578125 C 6.710938 -38.203125 6.625 -39.71875 6.5625 -41.125 C 6.5 -42.53125 6.4375 -44.128906 6.375 -45.921875 C 6.320312 -47.722656 6.265625 -49.972656 6.203125 -52.671875 C 6.140625 -55.367188 6.050781 -58.816406 5.9375 -63.015625 C 5.9375 -64.566406 5.90625 -65.734375 5.84375 -66.515625 C 5.78125 -67.296875 5.691406 -68.347656 5.578125 -69.671875 Z M 50.703125 -59.5 L 66.609375 -66.96875 C 78.597656 -52.46875 85.640625 -34.21875 87.734375 -12.21875 L 68.953125 -5.296875 C 68.890625 -9.910156 68.4375 -14.734375 67.59375 -19.765625 C 66.757812 -24.804688 65.5625 -29.601562 64 -34.15625 C 60.820312 -43.6875 56.390625 -52.132812 50.703125 -59.5 Z M 50.703125 -59.5 "/></g></g></g></svg>